<svg xmlns="http://www.w3.org/2000/svg" width="860" height="416" role="img" aria-label="Conversation latency (ms)"><rect width="100%" height="100%" fill="white"/><text x="10" y="24" font-size="18" font-family="sans-serif">Conversation latency (ms)</text><g font-family="sans-serif"><text x="10" y="60" font-size="12">0.000-1.000</text><rect x="280" y="45" width="460" height="22" fill="#356859"/><text x="750" y="61" font-size="12">150</text><text x="10" y="102" font-size="12">1.000-2.000</text><rect x="280" y="87" width="0" height="22" fill="#356859"/><text x="290" y="103" font-size="12">0</text><text x="10" y="144" font-size="12">2.000-3.000</text><rect x="280" y="129" width="0" height="22" fill="#356859"/><text x="290" y="145" font-size="12">0</text><text x="10" y="186" font-size="12">3.000-4.000</text><rect x="280" y="171" width="0" height="22" fill="#356859"/><text x="290" y="187" font-size="12">0</text><text x="10" y="228" font-size="12">4.000-5.000</text><rect x="280" y="213" width="0" height="22" fill="#356859"/><text x="290" y="229" font-size="12">0</text><text x="10" y="270" font-size="12">5.000-6.000</text><rect x="280" y="255" width="0" height="22" fill="#356859"/><text x="290" y="271" font-size="12">0</text><text x="10" y="312" font-size="12">6.000-7.000</text><rect x="280" y="297" width="0" height="22" fill="#356859"/><text x="290" y="313" font-size="12">0</text><text x="10" y="354" font-size="12">7.000-0.000</text><rect x="280" y="339" width="0" height="22" fill="#356859"/><text x="290" y="355" font-size="12">0</text></g></svg>
