<svg xmlns="http://www.w3.org/2000/svg" width="860" height="416" role="img" aria-label="Conversation latency (ms)"><rect width="100%" height="100%" fill="white"/><text x="10" y="24" font-size="18" font-family="sans-serif">Conversation latency (ms)</text><g font-family="sans-serif"><text x="10" y="60" font-size="12">6532.000-9786.625</text><rect x="280" y="45" width="52.57142857142857" height="22" fill="#356859"/><text x="342.57142857142856" y="61" font-size="12">4</text><text x="10" y="102" font-size="12">9786.625-13041.250</text><rect x="280" y="87" width="460" height="22" fill="#356859"/><text x="750" y="103" font-size="12">35</text><text x="10" y="144" font-size="12">13041.250-16295.875</text><rect x="280" y="129" width="315.42857142857144" height="22" fill="#356859"/><text x="605.4285714285714" y="145" font-size="12">24</text><text x="10" y="186" font-size="12">16295.875-19550.500</text><rect x="280" y="171" width="368" height="22" fill="#356859"/><text x="658" y="187" font-size="12">28</text><text x="10" y="228" font-size="12">19550.500-22805.125</text><rect x="280" y="213" width="394.2857142857143" height="22" fill="#356859"/><text x="684.2857142857142" y="229" font-size="12">30</text><text x="10" y="270" font-size="12">22805.125-26059.750</text><rect x="280" y="255" width="276" height="22" fill="#356859"/><text x="566" y="271" font-size="12">21</text><text x="10" y="312" font-size="12">26059.750-29314.375</text><rect x="280" y="297" width="65.71428571428571" height="22" fill="#356859"/><text x="355.7142857142857" y="313" font-size="12">5</text><text x="10" y="354" font-size="12">29314.375-32569.000</text><rect x="280" y="339" width="39.42857142857143" height="22" fill="#356859"/><text x="329.42857142857144" y="355" font-size="12">3</text></g></svg>
