<svg xmlns="http://www.w3.org/2000/svg" width="860" height="458" role="img" aria-label="Recorded tool calls"><rect width="100%" height="100%" fill="white"/><text x="10" y="24" font-size="18" font-family="sans-serif">Recorded tool calls</text><g font-family="sans-serif"><text x="10" y="60" font-size="12">search_providers_from_plan</text><rect x="280" y="45" width="460" height="22" fill="#356859"/><text x="750" y="61" font-size="12">139</text><text x="10" y="102" font-size="12">search_providers_by_query_intent</text><rect x="280" y="87" width="221.72661870503597" height="22" fill="#356859"/><text x="511.726618705036" y="103" font-size="12">67</text><text x="10" y="144" font-size="12">get_provider_detail</text><rect x="280" y="129" width="105.89928057553958" height="22" fill="#356859"/><text x="395.8992805755396" y="145" font-size="12">32</text><text x="10" y="186" font-size="12">finish_plan</text><rect x="280" y="171" width="49.64028776978417" height="22" fill="#356859"/><text x="339.64028776978415" y="187" font-size="12">15</text><text x="10" y="228" font-size="12">file_search</text><rect x="280" y="213" width="49.64028776978417" height="22" fill="#356859"/><text x="339.64028776978415" y="229" font-size="12">15</text><text x="10" y="270" font-size="12">list_categories</text><rect x="280" y="255" width="26.474820143884894" height="22" fill="#356859"/><text x="316.47482014388487" y="271" font-size="12">8</text><text x="10" y="312" font-size="12">get_related_providers</text><rect x="280" y="297" width="16.546762589928058" height="22" fill="#356859"/><text x="306.54676258992805" y="313" font-size="12">5</text><text x="10" y="354" font-size="12">list_provider_reviews</text><rect x="280" y="339" width="105.89928057553958" height="22" fill="#356859"/><text x="395.8992805755396" y="355" font-size="12">32</text><text x="10" y="396" font-size="12">list_locations</text><rect x="280" y="381" width="6.618705035971224" height="22" fill="#356859"/><text x="296.61870503597123" y="397" font-size="12">2</text></g></svg>
