<svg xmlns="http://www.w3.org/2000/svg" width="860" height="836" role="img" aria-label="Workflow node visits"><rect width="100%" height="100%" fill="white"/><text x="10" y="24" font-size="18" font-family="sans-serif">Workflow node visits</text><g font-family="sans-serif"><text x="10" y="60" font-size="12">contacto_inicial</text><rect x="280" y="45" width="460" height="22" fill="#356859"/><text x="750" y="61" font-size="12">150</text><text x="10" y="102" font-size="12">deteccion_intencion</text><rect x="280" y="87" width="460" height="22" fill="#356859"/><text x="750" y="103" font-size="12">150</text><text x="10" y="144" font-size="12">minimos_para_buscar</text><rect x="280" y="129" width="447.73333333333335" height="22" fill="#356859"/><text x="737.7333333333333" y="145" font-size="12">146</text><text x="10" y="186" font-size="12">buscar_proveedores</text><rect x="280" y="171" width="297.46666666666664" height="22" fill="#356859"/><text x="587.4666666666667" y="187" font-size="12">97</text><text x="10" y="228" font-size="12">busqueda_exitosa</text><rect x="280" y="213" width="297.46666666666664" height="22" fill="#356859"/><text x="587.4666666666667" y="229" font-size="12">97</text><text x="10" y="270" font-size="12">hay_resultados</text><rect x="280" y="255" width="297.46666666666664" height="22" fill="#356859"/><text x="587.4666666666667" y="271" font-size="12">97</text><text x="10" y="312" font-size="12">recomendar</text><rect x="280" y="297" width="435.46666666666664" height="22" fill="#356859"/><text x="725.4666666666667" y="313" font-size="12">142</text><text x="10" y="354" font-size="12">aclarar_pedir_faltante</text><rect x="280" y="339" width="260.6666666666667" height="22" fill="#356859"/><text x="550.6666666666667" y="355" font-size="12">85</text><text x="10" y="396" font-size="12">elicitacion_necesidades</text><rect x="280" y="381" width="70.53333333333333" height="22" fill="#356859"/><text x="360.5333333333333" y="397" font-size="12">23</text><text x="10" y="438" font-size="12">existe_plan_guardado</text><rect x="280" y="423" width="368" height="22" fill="#356859"/><text x="658" y="439" font-size="12">120</text><text x="10" y="480" font-size="12">refinar_criterios</text><rect x="280" y="465" width="122.66666666666667" height="22" fill="#356859"/><text x="412.6666666666667" y="481" font-size="12">40</text><text x="10" y="522" font-size="12">usuario_elige_proveedor</text><rect x="280" y="507" width="184" height="22" fill="#356859"/><text x="474" y="523" font-size="12">60</text><text x="10" y="564" font-size="12">anadir_a_proveedores_recomendados</text><rect x="280" y="549" width="92" height="22" fill="#356859"/><text x="382" y="565" font-size="12">30</text><text x="10" y="606" font-size="12">seguir_refinando_guardar_plan</text><rect x="280" y="591" width="162.53333333333333" height="22" fill="#356859"/><text x="452.5333333333333" y="607" font-size="12">53</text><text x="10" y="648" font-size="12">entrevista</text><rect x="280" y="633" width="180.93333333333334" height="22" fill="#356859"/><text x="470.93333333333334" y="649" font-size="12">59</text><text x="10" y="690" font-size="12">guardar_cerrar_temporalmente</text><rect x="280" y="675" width="92" height="22" fill="#356859"/><text x="382" y="691" font-size="12">30</text><text x="10" y="732" font-size="12">crear_lead_cerrar</text><rect x="280" y="717" width="46" height="22" fill="#356859"/><text x="336" y="733" font-size="12">15</text><text x="10" y="774" font-size="12">consultar_faq</text><rect x="280" y="759" width="46" height="22" fill="#356859"/><text x="336" y="775" font-size="12">15</text></g></svg>
