<svg xmlns="http://www.w3.org/2000/svg" width="860" height="416" role="img" aria-label="Recorded tool calls"><rect width="100%" height="100%" fill="white"/><text x="10" y="24" font-size="18" font-family="sans-serif">Recorded tool calls</text><g font-family="sans-serif"><text x="10" y="60" font-size="12">search_providers_from_plan</text><rect x="280" y="45" width="460" height="22" fill="#356859"/><text x="750" y="61" font-size="12">97</text><text x="10" y="102" font-size="12">search_providers_by_query_intent</text><rect x="280" y="87" width="279.7938144329897" height="22" fill="#356859"/><text x="569.7938144329896" y="103" font-size="12">59</text><text x="10" y="144" font-size="12">list_provider_reviews</text><rect x="280" y="129" width="99.58762886597938" height="22" fill="#356859"/><text x="389.58762886597935" y="145" font-size="12">21</text><text x="10" y="186" font-size="12">get_provider_detail</text><rect x="280" y="171" width="85.36082474226805" height="22" fill="#356859"/><text x="375.36082474226805" y="187" font-size="12">18</text><text x="10" y="228" font-size="12">finish_plan</text><rect x="280" y="213" width="71.1340206185567" height="22" fill="#356859"/><text x="361.1340206185567" y="229" font-size="12">15</text><text x="10" y="270" font-size="12">file_search</text><rect x="280" y="255" width="71.1340206185567" height="22" fill="#356859"/><text x="361.1340206185567" y="271" font-size="12">15</text><text x="10" y="312" font-size="12">list_categories</text><rect x="280" y="297" width="52.16494845360825" height="22" fill="#356859"/><text x="342.16494845360825" y="313" font-size="12">11</text><text x="10" y="354" font-size="12">list_locations</text><rect x="280" y="339" width="23.711340206185564" height="22" fill="#356859"/><text x="313.7113402061856" y="355" font-size="12">5</text></g></svg>
