<svg xmlns="http://www.w3.org/2000/svg" width="720" height="500" role="img" aria-label="Study outcomes"><rect width="100%" height="100%" fill="white"/><text x="10" y="24" font-size="18" font-family="sans-serif">Technical study outcomes</text><g font-family="sans-serif"><text x="10" y="60" font-size="12">recommendation</text><rect x="170" y="45" width="460" height="22" fill="#356859"/><text x="640" y="61" font-size="12">15</text><text x="10" y="102" font-size="12">clarification</text><rect x="170" y="87" width="460" height="22" fill="#356859"/><text x="640" y="103" font-size="12">15</text><text x="10" y="144" font-size="12">multi_need</text><rect x="170" y="129" width="460" height="22" fill="#356859"/><text x="640" y="145" font-size="12">15</text><text x="10" y="186" font-size="12">refinement</text><rect x="170" y="171" width="460" height="22" fill="#356859"/><text x="640" y="187" font-size="12">15</text><text x="10" y="228" font-size="12">selection</text><rect x="170" y="213" width="460" height="22" fill="#356859"/><text x="640" y="229" font-size="12">15</text><text x="10" y="270" font-size="12">pause_resume</text><rect x="170" y="255" width="460" height="22" fill="#356859"/><text x="640" y="271" font-size="12">15</text><text x="10" y="312" font-size="12">closure</text><rect x="170" y="297" width="460" height="22" fill="#356859"/><text x="640" y="313" font-size="12">15</text><text x="10" y="354" font-size="12">faq</text><rect x="170" y="339" width="460" height="22" fill="#356859"/><text x="640" y="355" font-size="12">15</text><text x="10" y="396" font-size="12">no_results</text><rect x="170" y="381" width="460" height="22" fill="#356859"/><text x="640" y="397" font-size="12">15</text><text x="10" y="438" font-size="12">error_recovery</text><rect x="170" y="423" width="460" height="22" fill="#356859"/><text x="640" y="439" font-size="12">15</text></g></svg>
