<svg xmlns="http://www.w3.org/2000/svg" width="860" height="416" role="img" aria-label="Conversation latency (ms)"><rect width="100%" height="100%" fill="white"/><text x="10" y="24" font-size="18" font-family="sans-serif">Conversation latency (ms)</text><g font-family="sans-serif"><text x="10" y="60" font-size="12">0.000-5848.750</text><rect x="280" y="45" width="10.222222222222223" height="22" fill="#356859"/><text x="300.22222222222223" y="61" font-size="12">1</text><text x="10" y="102" font-size="12">5848.750-11697.500</text><rect x="280" y="87" width="255.55555555555557" height="22" fill="#356859"/><text x="545.5555555555555" y="103" font-size="12">25</text><text x="10" y="144" font-size="12">11697.500-17546.250</text><rect x="280" y="129" width="449.77777777777777" height="22" fill="#356859"/><text x="739.7777777777778" y="145" font-size="12">44</text><text x="10" y="186" font-size="12">17546.250-23395.000</text><rect x="280" y="171" width="460" height="22" fill="#356859"/><text x="750" y="187" font-size="12">45</text><text x="10" y="228" font-size="12">23395.000-29243.750</text><rect x="280" y="213" width="316.8888888888889" height="22" fill="#356859"/><text x="606.8888888888889" y="229" font-size="12">31</text><text x="10" y="270" font-size="12">29243.750-35092.500</text><rect x="280" y="255" width="20.444444444444446" height="22" fill="#356859"/><text x="310.44444444444446" y="271" font-size="12">2</text><text x="10" y="312" font-size="12">35092.500-40941.250</text><rect x="280" y="297" width="10.222222222222223" height="22" fill="#356859"/><text x="300.22222222222223" y="313" font-size="12">1</text><text x="10" y="354" font-size="12">40941.250-46790.000</text><rect x="280" y="339" width="10.222222222222223" height="22" fill="#356859"/><text x="300.22222222222223" y="355" font-size="12">1</text></g></svg>
