<svg xmlns="http://www.w3.org/2000/svg" width="860" height="416" role="img" aria-label="Priced cost per conversation (USD)"><rect width="100%" height="100%" fill="white"/><text x="10" y="24" font-size="18" font-family="sans-serif">Priced cost per conversation (USD)</text><g font-family="sans-serif"><text x="10" y="60" font-size="12">0.000-0.002</text><rect x="280" y="45" width="10.222222222222223" height="22" fill="#356859"/><text x="300.22222222222223" y="61" font-size="12">1</text><text x="10" y="102" font-size="12">0.002-0.005</text><rect x="280" y="87" width="460" height="22" fill="#356859"/><text x="750" y="103" font-size="12">45</text><text x="10" y="144" font-size="12">0.005-0.007</text><rect x="280" y="129" width="337.3333333333333" height="22" fill="#356859"/><text x="627.3333333333333" y="145" font-size="12">33</text><text x="10" y="186" font-size="12">0.007-0.009</text><rect x="280" y="171" width="296.44444444444446" height="22" fill="#356859"/><text x="586.4444444444445" y="187" font-size="12">29</text><text x="10" y="228" font-size="12">0.009-0.011</text><rect x="280" y="213" width="286.22222222222223" height="22" fill="#356859"/><text x="576.2222222222222" y="229" font-size="12">28</text><text x="10" y="270" font-size="12">0.011-0.014</text><rect x="280" y="255" width="102.22222222222221" height="22" fill="#356859"/><text x="392.22222222222223" y="271" font-size="12">10</text><text x="10" y="312" font-size="12">0.014-0.016</text><rect x="280" y="297" width="20.444444444444446" height="22" fill="#356859"/><text x="310.44444444444446" y="313" font-size="12">2</text><text x="10" y="354" font-size="12">0.016-0.018</text><rect x="280" y="339" width="20.444444444444446" height="22" fill="#356859"/><text x="310.44444444444446" y="355" font-size="12">2</text></g></svg>
