<svg xmlns="http://www.w3.org/2000/svg" width="860" height="836" role="img" aria-label="Workflow node visits"><rect width="100%" height="100%" fill="white"/><text x="10" y="24" font-size="18" font-family="sans-serif">Workflow node visits</text><g font-family="sans-serif"><text x="10" y="60" font-size="12">contacto_inicial</text><rect x="280" y="45" width="353.298969072165" height="22" fill="#356859"/><text x="643.2989690721649" y="61" font-size="12">149</text><text x="10" y="102" font-size="12">deteccion_intencion</text><rect x="280" y="87" width="353.298969072165" height="22" fill="#356859"/><text x="643.2989690721649" y="103" font-size="12">149</text><text x="10" y="144" font-size="12">minimos_para_buscar</text><rect x="280" y="129" width="336.701030927835" height="22" fill="#356859"/><text x="626.7010309278351" y="145" font-size="12">142</text><text x="10" y="186" font-size="12">buscar_proveedores</text><rect x="280" y="171" width="320.10309278350513" height="22" fill="#356859"/><text x="610.1030927835052" y="187" font-size="12">135</text><text x="10" y="228" font-size="12">busqueda_exitosa</text><rect x="280" y="213" width="320.10309278350513" height="22" fill="#356859"/><text x="610.1030927835052" y="229" font-size="12">135</text><text x="10" y="270" font-size="12">hay_resultados</text><rect x="280" y="255" width="320.10309278350513" height="22" fill="#356859"/><text x="610.1030927835052" y="271" font-size="12">135</text><text x="10" y="312" font-size="12">recomendar</text><rect x="280" y="297" width="460" height="22" fill="#356859"/><text x="750" y="313" font-size="12">194</text><text x="10" y="354" font-size="12">elicitacion_necesidades</text><rect x="280" y="339" width="78.24742268041237" height="22" fill="#356859"/><text x="368.24742268041234" y="355" font-size="12">33</text><text x="10" y="396" font-size="12">existe_plan_guardado</text><rect x="280" y="381" width="282.16494845360825" height="22" fill="#356859"/><text x="572.1649484536083" y="397" font-size="12">119</text><text x="10" y="438" font-size="12">refinar_criterios</text><rect x="280" y="423" width="92.47422680412372" height="22" fill="#356859"/><text x="382.4742268041237" y="439" font-size="12">39</text><text x="10" y="480" font-size="12">usuario_elige_proveedor</text><rect x="280" y="465" width="154.12371134020617" height="22" fill="#356859"/><text x="444.12371134020617" y="481" font-size="12">65</text><text x="10" y="522" font-size="12">anadir_a_proveedores_recomendados</text><rect x="280" y="507" width="85.36082474226805" height="22" fill="#356859"/><text x="375.36082474226805" y="523" font-size="12">36</text><text x="10" y="564" font-size="12">seguir_refinando_guardar_plan</text><rect x="280" y="549" width="132.78350515463916" height="22" fill="#356859"/><text x="422.78350515463916" y="565" font-size="12">56</text><text x="10" y="606" font-size="12">entrevista</text><rect x="280" y="591" width="125.67010309278349" height="22" fill="#356859"/><text x="415.6701030927835" y="607" font-size="12">53</text><text x="10" y="648" font-size="12">guardar_cerrar_temporalmente</text><rect x="280" y="633" width="71.1340206185567" height="22" fill="#356859"/><text x="361.1340206185567" y="649" font-size="12">30</text><text x="10" y="690" font-size="12">crear_lead_cerrar</text><rect x="280" y="675" width="35.56701030927835" height="22" fill="#356859"/><text x="325.5670103092784" y="691" font-size="12">15</text><text x="10" y="732" font-size="12">consultar_faq</text><rect x="280" y="717" width="35.56701030927835" height="22" fill="#356859"/><text x="325.5670103092784" y="733" font-size="12">15</text><text x="10" y="774" font-size="12">aclarar_pedir_faltante</text><rect x="280" y="759" width="59.27835051546391" height="22" fill="#356859"/><text x="349.2783505154639" y="775" font-size="12">25</text></g></svg>
