<svg xmlns="http://www.w3.org/2000/svg" width="860" height="416" role="img" aria-label="Tool calls per conversation"><rect width="100%" height="100%" fill="white"/><text x="10" y="24" font-size="18" font-family="sans-serif">Tool calls per conversation</text><g font-family="sans-serif"><text x="10" y="60" font-size="12">0.000-1.000</text><rect x="280" y="45" width="27.058823529411764" height="22" fill="#356859"/><text x="317.05882352941177" y="61" font-size="12">4</text><text x="10" y="102" font-size="12">1.000-2.000</text><rect x="280" y="87" width="460" height="22" fill="#356859"/><text x="750" y="103" font-size="12">68</text><text x="10" y="144" font-size="12">2.000-3.000</text><rect x="280" y="129" width="317.94117647058823" height="22" fill="#356859"/><text x="607.9411764705883" y="145" font-size="12">47</text><text x="10" y="186" font-size="12">3.000-4.000</text><rect x="280" y="171" width="81.1764705882353" height="22" fill="#356859"/><text x="371.1764705882353" y="187" font-size="12">12</text><text x="10" y="228" font-size="12">4.000-5.000</text><rect x="280" y="213" width="54.11764705882353" height="22" fill="#356859"/><text x="344.11764705882354" y="229" font-size="12">8</text><text x="10" y="270" font-size="12">5.000-6.000</text><rect x="280" y="255" width="47.35294117647059" height="22" fill="#356859"/><text x="337.3529411764706" y="271" font-size="12">7</text><text x="10" y="312" font-size="12">6.000-7.000</text><rect x="280" y="297" width="20.294117647058826" height="22" fill="#356859"/><text x="310.29411764705884" y="313" font-size="12">3</text><text x="10" y="354" font-size="12">7.000-8.000</text><rect x="280" y="339" width="6.764705882352941" height="22" fill="#356859"/><text x="296.7647058823529" y="355" font-size="12">1</text></g></svg>
