<svg xmlns="http://www.w3.org/2000/svg" width="860" height="416" role="img" aria-label="Conversation latency (ms)"><rect width="100%" height="100%" fill="white"/><text x="10" y="24" font-size="18" font-family="sans-serif">Conversation latency (ms)</text><g font-family="sans-serif"><text x="10" y="60" font-size="12">7117.000-10391.625</text><rect x="280" y="45" width="78.85714285714286" height="22" fill="#356859"/><text x="368.8571428571429" y="61" font-size="12">6</text><text x="10" y="102" font-size="12">10391.625-13666.250</text><rect x="280" y="87" width="420.57142857142856" height="22" fill="#356859"/><text x="710.5714285714286" y="103" font-size="12">32</text><text x="10" y="144" font-size="12">13666.250-16940.875</text><rect x="280" y="129" width="302.2857142857143" height="22" fill="#356859"/><text x="592.2857142857142" y="145" font-size="12">23</text><text x="10" y="186" font-size="12">16940.875-20215.500</text><rect x="280" y="171" width="289.1428571428571" height="22" fill="#356859"/><text x="579.1428571428571" y="187" font-size="12">22</text><text x="10" y="228" font-size="12">20215.500-23490.125</text><rect x="280" y="213" width="460" height="22" fill="#356859"/><text x="750" y="229" font-size="12">35</text><text x="10" y="270" font-size="12">23490.125-26764.750</text><rect x="280" y="255" width="302.2857142857143" height="22" fill="#356859"/><text x="592.2857142857142" y="271" font-size="12">23</text><text x="10" y="312" font-size="12">26764.750-30039.375</text><rect x="280" y="297" width="105.14285714285714" height="22" fill="#356859"/><text x="395.1428571428571" y="313" font-size="12">8</text><text x="10" y="354" font-size="12">30039.375-33314.000</text><rect x="280" y="339" width="13.142857142857142" height="22" fill="#356859"/><text x="303.14285714285717" y="355" font-size="12">1</text></g></svg>
