<svg xmlns="http://www.w3.org/2000/svg" width="860" height="416" role="img" aria-label="Priced cost per conversation (USD)"><rect width="100%" height="100%" fill="white"/><text x="10" y="24" font-size="18" font-family="sans-serif">Priced cost per conversation (USD)</text><g font-family="sans-serif"><text x="10" y="60" font-size="12">0.003-0.004</text><rect x="280" y="45" width="460" height="22" fill="#356859"/><text x="750" y="61" font-size="12">38</text><text x="10" y="102" font-size="12">0.004-0.006</text><rect x="280" y="87" width="326.84210526315786" height="22" fill="#356859"/><text x="616.8421052631579" y="103" font-size="12">27</text><text x="10" y="144" font-size="12">0.006-0.007</text><rect x="280" y="129" width="278.42105263157896" height="22" fill="#356859"/><text x="568.421052631579" y="145" font-size="12">23</text><text x="10" y="186" font-size="12">0.007-0.009</text><rect x="280" y="171" width="217.89473684210526" height="22" fill="#356859"/><text x="507.89473684210526" y="187" font-size="12">18</text><text x="10" y="228" font-size="12">0.009-0.011</text><rect x="280" y="213" width="266.3157894736842" height="22" fill="#356859"/><text x="556.3157894736842" y="229" font-size="12">22</text><text x="10" y="270" font-size="12">0.011-0.012</text><rect x="280" y="255" width="169.4736842105263" height="22" fill="#356859"/><text x="459.4736842105263" y="271" font-size="12">14</text><text x="10" y="312" font-size="12">0.012-0.014</text><rect x="280" y="297" width="36.315789473684205" height="22" fill="#356859"/><text x="326.3157894736842" y="313" font-size="12">3</text><text x="10" y="354" font-size="12">0.014-0.016</text><rect x="280" y="339" width="60.52631578947368" height="22" fill="#356859"/><text x="350.5263157894737" y="355" font-size="12">5</text></g></svg>
