<svg xmlns="http://www.w3.org/2000/svg" width="860" height="416" role="img" aria-label="Tokens per conversation"><rect width="100%" height="100%" fill="white"/><text x="10" y="24" font-size="18" font-family="sans-serif">Tokens per conversation</text><g font-family="sans-serif"><text x="10" y="60" font-size="12">16296.000-23516.000</text><rect x="280" y="45" width="460" height="22" fill="#356859"/><text x="750" y="61" font-size="12">58</text><text x="10" y="102" font-size="12">23516.000-30736.000</text><rect x="280" y="87" width="0" height="22" fill="#356859"/><text x="290" y="103" font-size="12">0</text><text x="10" y="144" font-size="12">30736.000-37956.000</text><rect x="280" y="129" width="253.79310344827587" height="22" fill="#356859"/><text x="543.7931034482758" y="145" font-size="12">32</text><text x="10" y="186" font-size="12">37956.000-45176.000</text><rect x="280" y="171" width="206.20689655172413" height="22" fill="#356859"/><text x="496.2068965517241" y="187" font-size="12">26</text><text x="10" y="228" font-size="12">45176.000-52396.000</text><rect x="280" y="213" width="103.10344827586206" height="22" fill="#356859"/><text x="393.1034482758621" y="229" font-size="12">13</text><text x="10" y="270" font-size="12">52396.000-59616.000</text><rect x="280" y="255" width="63.44827586206897" height="22" fill="#356859"/><text x="353.44827586206895" y="271" font-size="12">8</text><text x="10" y="312" font-size="12">59616.000-66836.000</text><rect x="280" y="297" width="79.3103448275862" height="22" fill="#356859"/><text x="369.3103448275862" y="313" font-size="12">10</text><text x="10" y="354" font-size="12">66836.000-74056.000</text><rect x="280" y="339" width="23.79310344827586" height="22" fill="#356859"/><text x="313.7931034482759" y="355" font-size="12">3</text></g></svg>
