<svg xmlns="http://www.w3.org/2000/svg" width="860" height="458" role="img" aria-label="Recorded tool calls"><rect width="100%" height="100%" fill="white"/><text x="10" y="24" font-size="18" font-family="sans-serif">Recorded tool calls</text><g font-family="sans-serif"><text x="10" y="60" font-size="12">search_providers_from_plan</text><rect x="280" y="45" width="460" height="22" fill="#356859"/><text x="750" y="61" font-size="12">140</text><text x="10" y="102" font-size="12">search_providers_by_query_intent</text><rect x="280" y="87" width="213.57142857142858" height="22" fill="#356859"/><text x="503.57142857142856" y="103" font-size="12">65</text><text x="10" y="144" font-size="12">get_provider_detail</text><rect x="280" y="129" width="72.28571428571428" height="22" fill="#356859"/><text x="362.2857142857143" y="145" font-size="12">22</text><text x="10" y="186" font-size="12">finish_plan</text><rect x="280" y="171" width="49.285714285714285" height="22" fill="#356859"/><text x="339.2857142857143" y="187" font-size="12">15</text><text x="10" y="228" font-size="12">file_search</text><rect x="280" y="213" width="49.285714285714285" height="22" fill="#356859"/><text x="339.2857142857143" y="229" font-size="12">15</text><text x="10" y="270" font-size="12">get_related_providers</text><rect x="280" y="255" width="16.428571428571427" height="22" fill="#356859"/><text x="306.42857142857144" y="271" font-size="12">5</text><text x="10" y="312" font-size="12">list_provider_reviews</text><rect x="280" y="297" width="59.14285714285714" height="22" fill="#356859"/><text x="349.1428571428571" y="313" font-size="12">18</text><text x="10" y="354" font-size="12">list_locations</text><rect x="280" y="339" width="9.857142857142858" height="22" fill="#356859"/><text x="299.85714285714283" y="355" font-size="12">3</text><text x="10" y="396" font-size="12">list_categories</text><rect x="280" y="381" width="19.714285714285715" height="22" fill="#356859"/><text x="309.7142857142857" y="397" font-size="12">6</text></g></svg>
