<svg xmlns="http://www.w3.org/2000/svg" width="860" height="416" role="img" aria-label="Tool calls per conversation"><rect width="100%" height="100%" fill="white"/><text x="10" y="24" font-size="18" font-family="sans-serif">Tool calls per conversation</text><g font-family="sans-serif"><text x="10" y="60" font-size="12">0.000-1.250</text><rect x="280" y="45" width="460" height="22" fill="#356859"/><text x="750" y="61" font-size="12">77</text><text x="10" y="102" font-size="12">1.250-2.500</text><rect x="280" y="87" width="215.06493506493507" height="22" fill="#356859"/><text x="505.06493506493507" y="103" font-size="12">36</text><text x="10" y="144" font-size="12">2.500-3.750</text><rect x="280" y="129" width="53.76623376623377" height="22" fill="#356859"/><text x="343.76623376623377" y="145" font-size="12">9</text><text x="10" y="186" font-size="12">3.750-5.000</text><rect x="280" y="171" width="59.74025974025974" height="22" fill="#356859"/><text x="349.7402597402597" y="187" font-size="12">10</text><text x="10" y="228" font-size="12">5.000-6.250</text><rect x="280" y="213" width="47.7922077922078" height="22" fill="#356859"/><text x="337.7922077922078" y="229" font-size="12">8</text><text x="10" y="270" font-size="12">6.250-7.500</text><rect x="280" y="255" width="11.94805194805195" height="22" fill="#356859"/><text x="301.94805194805195" y="271" font-size="12">2</text><text x="10" y="312" font-size="12">7.500-8.750</text><rect x="280" y="297" width="35.84415584415584" height="22" fill="#356859"/><text x="325.84415584415586" y="313" font-size="12">6</text><text x="10" y="354" font-size="12">8.750-10.000</text><rect x="280" y="339" width="11.94805194805195" height="22" fill="#356859"/><text x="301.94805194805195" y="355" font-size="12">2</text></g></svg>
