<svg xmlns="http://www.w3.org/2000/svg" width="860" height="416" role="img" aria-label="Recorded tool calls"><rect width="100%" height="100%" fill="white"/><text x="10" y="24" font-size="18" font-family="sans-serif">Recorded tool calls</text><g font-family="sans-serif"><text x="10" y="60" font-size="12">search_providers_from_plan</text><rect x="280" y="45" width="460" height="22" fill="#356859"/><text x="750" y="61" font-size="12">142</text><text x="10" y="102" font-size="12">search_providers_by_query_intent</text><rect x="280" y="87" width="184.64788732394368" height="22" fill="#356859"/><text x="474.6478873239437" y="103" font-size="12">57</text><text x="10" y="144" font-size="12">get_provider_detail</text><rect x="280" y="129" width="184.64788732394368" height="22" fill="#356859"/><text x="474.6478873239437" y="145" font-size="12">57</text><text x="10" y="186" font-size="12">finish_plan</text><rect x="280" y="171" width="45.352112676056336" height="22" fill="#356859"/><text x="335.3521126760563" y="187" font-size="12">14</text><text x="10" y="228" font-size="12">file_search</text><rect x="280" y="213" width="48.59154929577465" height="22" fill="#356859"/><text x="338.59154929577466" y="229" font-size="12">15</text><text x="10" y="270" font-size="12">list_provider_reviews</text><rect x="280" y="255" width="129.5774647887324" height="22" fill="#356859"/><text x="419.5774647887324" y="271" font-size="12">40</text><text x="10" y="312" font-size="12">get_related_providers</text><rect x="280" y="297" width="22.676056338028168" height="22" fill="#356859"/><text x="312.67605633802816" y="313" font-size="12">7</text><text x="10" y="354" font-size="12">list_categories</text><rect x="280" y="339" width="3.23943661971831" height="22" fill="#356859"/><text x="293.23943661971833" y="355" font-size="12">1</text></g></svg>
